<svg xmlns="http://www.w3.org/2000/svg" viewBox="0 0 1024 1024" width="1024" height="1024">
  <!-- Generated by tools/icon.py - do not edit. The glyph of the macOS 26 icon: the same path
       as in app-icon.svg, on the full square; the check is cut out of the folder. -->
  <path fill="#FFFFFF" fill-rule="evenodd" d="M284.28 216.77L392.69 216.77A71.23 71.23 0 0 1 443.06 237.64L477.72 272.3A71.23 71.23 0 0 0 528.08 293.16L739.72 293.16C779.61 293.16 799.55 293.16 814.79 300.92A71.23 71.23 0 0 1 845.91 332.05C853.68 347.29 853.68 367.23 853.68 407.12L853.68 672.62C853.68 712.51 853.68 732.45 845.91 747.69A71.23 71.23 0 0 1 814.79 778.82C799.55 786.58 779.61 786.58 739.72 786.58L284.28 786.58C244.39 786.58 224.45 786.58 209.21 778.82A71.23 71.23 0 0 1 178.09 747.69C170.32 732.45 170.32 712.51 170.32 672.62L170.32 330.74C170.32 290.85 170.32 270.9 178.09 255.66A71.23 71.23 0 0 1 209.21 224.54C224.45 216.77 244.39 216.77 284.28 216.77ZM386.42 494.1L465.55 573.22L639.64 399.13A42.84 42.84 0 0 1 700.23 399.13A42.84 42.84 0 0 1 700.23 459.71L495.84 664.1A42.84 42.84 0 0 1 435.26 664.1L325.84 554.68A42.84 42.84 0 0 1 325.84 494.1A42.84 42.84 0 0 1 386.42 494.1Z"/>
</svg>
